<?xml version="1.0" encoding="UTF-8" standalone="no"?>
<svg
   xml:space="preserve"
   enable-background="new 0 0 520 433"
   viewBox="0 0 463.55942 377.8291"
   height="377.8291"
   width="463.55942"
   y="0px"
   x="0px"
   id="Layer_1"
   version="1.1"
   sodipodi:docname="splat.svg"
   inkscape:version="1.1.2 (0a00cf5339, 2022-02-04)"
   xmlns:inkscape="http://www.inkscape.org/namespaces/inkscape"
   xmlns:sodipodi="http://sodipodi.sourceforge.net/DTD/sodipodi-0.dtd"
   xmlns:xlink="http://www.w3.org/1999/xlink"
   xmlns="http://www.w3.org/2000/svg"
   xmlns:svg="http://www.w3.org/2000/svg"
   xmlns:rdf="http://www.w3.org/1999/02/22-rdf-syntax-ns#"
   xmlns:cc="http://creativecommons.org/ns#"
   xmlns:dc="http://purl.org/dc/elements/1.1/"><sodipodi:namedview
   pagecolor="#ffffff"
   bordercolor="#666666"
   borderopacity="1"
   objecttolerance="10"
   gridtolerance="10"
   guidetolerance="10"
   inkscape:pageopacity="0"
   inkscape:pageshadow="2"
   inkscape:window-width="1920"
   inkscape:window-height="1019"
   id="namedview34"
   showgrid="false"
   inkscape:zoom="1.2129429"
   inkscape:cx="-20.198807"
   inkscape:cy="170.65931"
   inkscape:window-x="0"
   inkscape:window-y="0"
   inkscape:window-maximized="1"
   inkscape:current-layer="Layer_1"
   inkscape:pagecheckerboard="0"
   fit-margin-top="0"
   fit-margin-left="0"
   fit-margin-right="0"
   fit-margin-bottom="0" /><title
   id="title4139">Splat 5</title><metadata
   id="metadata8"><rdf:RDF><cc:Work
       rdf:about=""><dc:format>image/svg+xml</dc:format><dc:type
         rdf:resource="http://purl.org/dc/dcmitype/StillImage" /><dc:title>Splat 5</dc:title><cc:license
         rdf:resource="http://creativecommons.org/publicdomain/zero/1.0/" /><dc:creator><cc:Agent><dc:title>Arvin61r58</dc:title></cc:Agent></dc:creator><dc:publisher><cc:Agent><dc:title>Openclipart.org</dc:title></cc:Agent></dc:publisher><dc:identifier>https://openclipart.org/</dc:identifier><dc:source>https://openclipart.org/user-detail/Arvin61r58</dc:source><dc:subject><rdf:Bag><rdf:li>spill</rdf:li><rdf:li>glop</rdf:li><rdf:li>goo</rdf:li><rdf:li>goop</rdf:li><rdf:li>grunge</rdf:li><rdf:li>gunge</rdf:li><rdf:li>gunk</rdf:li><rdf:li>ink</rdf:li><rdf:li>paint</rdf:li><rdf:li>slime</rdf:li><rdf:li>splat</rdf:li><rdf:li /></rdf:Bag></dc:subject><dc:description>green splat - remixed</dc:description><dc:contributor><cc:Agent><dc:title>NicholasJudy456 (https://openclipart.org/user-detail/NicholasJudy456)</dc:title></cc:Agent></dc:contributor></cc:Work><cc:License
       rdf:about="http://creativecommons.org/publicdomain/zero/1.0/"><cc:permits
         rdf:resource="http://creativecommons.org/ns#Reproduction" /><cc:permits
         rdf:resource="http://creativecommons.org/ns#Distribution" /><cc:permits
         rdf:resource="http://creativecommons.org/ns#DerivativeWorks" /></cc:License></rdf:RDF></metadata><defs
   id="defs6"><linearGradient
     id="linearGradient4348"><stop
       stop-color="#a9e2af"
       offset="0"
       id="stop4350" /><stop
       stop-color="#4ebf52"
       offset="0.111111"
       id="stop4352" /><stop
       stop-color="#1ba615"
       offset="0.222222"
       id="stop4354" /><stop
       stop-color="#25ac27"
       offset="0.333333"
       id="stop4356" /><stop
       stop-color="#2dae31"
       offset="0.444444"
       id="stop4358" /><stop
       stop-color="#2daf32"
       offset="0.555556"
       id="stop4360" /><stop
       stop-color="#26af2a"
       offset="0.666667"
       id="stop4362" /><stop
       stop-color="#12a20f"
       offset="0.777778"
       id="stop4364" /><stop
       stop-color="#3cb755"
       offset="0.888889"
       id="stop4366" /><stop
       stop-color="#12991b"
       offset="1"
       id="stop4368" /></linearGradient><linearGradient
     gradientUnits="userSpaceOnUse"
     y2="349.02646"
     x2="432.56866"
     y1="94.259621"
     x1="54.647392"
     id="linearGradient4401"
     xlink:href="#linearGradient4348" /><filter
     width="3.220639"
     x="-1.1103195"
     height="3.4772646"
     y="-1.2386323"
     id="filter4538"
     style="color-interpolation-filters:sRGB"><feGaussianBlur
       id="feGaussianBlur4540"
       result="result0"
       in="SourceGraphic"
       stdDeviation="9.5782732" /><feDiffuseLighting
       id="feDiffuseLighting4542"
       result="result5"
       surfaceScale="4"
       diffuseConstant="1"
       lighting-color="#ffffff"><feDistantLight
         id="feDistantLight4544"
         azimuth="235"
         elevation="45" /></feDiffuseLighting><feComposite
       id="feComposite4546"
       operator="arithmetic"
       result="fbSourceGraphic"
       in="result5"
       in2="SourceGraphic"
       k1="1.4"
       k2="0"
       k3="0"
       k4="0" /><feGaussianBlur
       id="feGaussianBlur4548"
       stdDeviation="6"
       in="fbSourceGraphic"
       result="result0" /><feSpecularLighting
       id="feSpecularLighting4550"
       in="result0"
       result="result1"
       lighting-color="#a6fe0f"
       surfaceScale="4"
       specularConstant="1"
       specularExponent="25"><fePointLight
         id="fePointLight4558" /></feSpecularLighting><feComposite
       id="feComposite4554"
       result="result4"
       in2="result1"
       in="fbSourceGraphic"
       operator="arithmetic"
       k2="1"
       k3="1"
       k1="0"
       k4="0" /><feComposite
       id="feComposite4556"
       in="result4"
       in2="SourceGraphic"
       result="result2"
       operator="in" /></filter><filter
     width="1.5811476"
     x="-0.29057375"
     height="1.7117296"
     y="-0.35586485"
     id="filter2201"
     style="color-interpolation-filters:sRGB"><feGaussianBlur
       id="feGaussianBlur2183"
       result="result0"
       in="SourceGraphic"
       stdDeviation="50.210086" /><feDiffuseLighting
       id="feDiffuseLighting2187"
       result="result5"
       surfaceScale="4"
       diffuseConstant="1"
       lighting-color="#ffffff"><feDistantLight
         id="feDistantLight2185"
         azimuth="235"
         elevation="45" /></feDiffuseLighting><feComposite
       id="feComposite2189"
       operator="arithmetic"
       result="fbSourceGraphic"
       in="result5"
       in2="SourceGraphic"
       k1="1.4"
       k2="0"
       k3="0"
       k4="0" /><feGaussianBlur
       id="feGaussianBlur2191"
       stdDeviation="6"
       in="fbSourceGraphic"
       result="result0" /><feSpecularLighting
       id="feSpecularLighting2195"
       in="result0"
       result="result1"
       lighting-color="#a6fe0f"
       surfaceScale="4"
       specularConstant="1"
       specularExponent="25"><fePointLight
         id="fePointLight2193" /></feSpecularLighting><feComposite
       id="feComposite2197"
       result="result4"
       in2="result1"
       in="fbSourceGraphic"
       operator="arithmetic"
       k2="1"
       k3="1"
       k1="0"
       k4="0" /><feComposite
       id="feComposite2199"
       in="result4"
       in2="SourceGraphic"
       result="result2"
       operator="in" /></filter></defs>  <path
   style="fill:#00a000;fill-opacity:1"
   d="m 221.27746,376.49875 c -13.7276,-4.34147 -16.70248,-9.91797 -11.14773,-20.89674 3.00457,-5.93843 2.89716,-8.98621 -0.44303,-12.57149 -2.22359,-2.38674 -4.2089,-1.96543 -5.65079,1.19916 -3.60838,7.91953 -11.26379,11.94598 -17.6441,9.28011 -7.47755,-3.12432 -8.49579,-10.44679 -2.7071,-19.46767 1.70101,-2.65081 3.09275,-5.54657 3.09275,-6.43504 0,-3.11197 -2.26369,-6.53658 -5.45772,-8.25668 -7.74367,-4.17024 -14.99827,1.52125 -23.47818,18.41944 -5.8514,11.66028 -9.53136,16.21489 -15.35805,19.00836 -12.43243,5.96045 -28.74216,1.68538 -34.25713,-8.97941 -3.7043,-7.16332 -0.91333,-13.75898 11.63049,-27.48537 8.8018,-9.63158 12.92059,-15.66466 12.92059,-18.92567 0,-2.94616 -2.92885,-7.28309 -6.34379,-9.39364 -8.57778,-5.30136 -15.10253,-0.96426 -29.552572,19.64405 -4.948054,7.05678 -7.965024,10.4375 -9.703974,10.87395 -6.23976,1.56608 -16.39967,-7.22357 -16.39967,-14.18785 0,-4.32672 3.47364,-8.33577 12.5,-14.42669 10.09599,-6.8127 12.500004,-9.91414 12.500004,-16.12639 0,-6.08991 -2.071184,-10.33652 -6.298554,-12.91409 -4.76195,-2.90354 -9.14035,-2.42825 -23.03383,2.50037 -18.20825,6.45926 -26.92174,8.0429 -36.453341,6.62525 -9.7538,-1.4507 -13.30551,-3.51079 -15.15088,-8.78792 -1.16115,-3.32049 -1.20917,-4.86732 -0.25043,-8.06731 1.99798,-6.66865 4.71943,-9.00004 17.894221,-15.32945 16.48936,-7.92179 23.57508,-14.42428 26.38163,-24.21015 0.99918,-3.48396 -0.98473,-9.03377 -3.75416,-10.50194 -1.00906,-0.53493 -8.58466,-1.16596 -16.83466,-1.40229 -19.660461,-0.56318 -23.753141,-2.52831 -20.075771,-9.63956 1.99837,-3.86442 5.58825,-5.92284 20.075771,-11.51133 13.06956,-5.04153 18.24026,-7.79473 19.16504,-10.20468 0.9799,-2.55358 -1.31396,-6.16963 -5.79796,-9.13988 -4.19236,-2.77708 -4.31294,-2.79306 -24.836701,-3.29063 -17.2298286,-0.41772 -21.0544486,-0.78242 -23.240229,-2.21612 -8.19863,-5.37763 -1.38835,-22.0466 11.495939,-28.13767 7.44773,-3.52093 18.066291,-5.41829 34.713911,-6.20281 11.98862,-0.56496 15.15805,-1.04563 18.29941,-2.77526 4.81144,-2.64919 7.70059,-7.28717 7.70059,-12.36186 0,-4.99614 -2.0483,-6.95966 -12.02014,-11.52263 -7.92243,-3.62519 -14.47634,-8.62182 -15.48742,-11.80745 -0.98193,-3.09378 1.33062,-5.98545 6.83708,-8.54927 7.41565,-3.45274 15.2731,-3.20749 34.38063,1.07308 16.888426,3.78344 24.324276,4.36838 26.236806,2.06392 1.42218,-1.71362 0.98468,-2.6574 -6.01248,-12.9702 -5.27907,-7.78059 -8.28411,-14.916755 -7.42341,-17.628575 1.10758,-3.48968 4.40263,-5.34841 9.34904,-5.27379 5.61359,0.0847 8.62015,1.4814 20.37527,9.46543 4.80446,3.263175 10.3025,6.587835 12.21788,7.388135 9.20938,3.84792 18.54675,-0.67969 18.54675,-8.993165 0,-1.29477 -1.8,-8.12372 -4,-15.17545 -4.57636,-14.66872 -5.05075,-20.9401 -1.96203,-25.93775 2.91279,-4.71299 10.85623,-8.44516 17.90837,-8.41411 13.50869,0.0595 23.43348,4.79107 37.36211,17.81227 10.89796,10.18798 18.81663,14.85067 23.30697,13.72367 3.30455,-0.82939 5.56342,-6.2757 5.36593,-12.93768 -0.2916,-9.83666 -0.004,-11.4427 2.60754,-14.54598 2.07099,-2.46124 3.36434,-3.07673 6.46521,-3.07673 5.56234,0 9.90339,4.15442 13.26678,12.69642 4.60638,11.69882 13.4451,21.30358 19.6045,21.30358 5.96482,0 9.35756,-5.0013 13.57972,-20.01812 3.11615,-11.08314 4.56809,-14.10769 8.10978,-16.89358 3.43295,-2.70036 7.85318,-2.64711 13.42323,0.1617 3.85296,1.94293 4.78672,3.06884 6.84206,8.25 1.96207,4.94603 2.52797,8.8106 3.22156,22 0.93927,17.86142 2.11356,24.280595 5.01063,27.390235 3.73784,4.0121 6.912,3.00415 22.18966,-7.046325 19.01554,-12.50944 31.19442,-16.79306 42.47097,-14.9381 7.38402,1.21464 12.28379,3.32714 16.68978,7.19565 2.95028,2.59037 3.53723,3.77417 3.53723,7.1341 0,8.703375 -7.94564,16.309685 -24.76907,23.711255 -14.94944,6.5771 -19.55296,9.29777 -22.68875,13.409 -4.87307,6.38891 -4.28615,11.09901 1.4697,11.79444 4.06183,0.49076 21.60375,-1.12898 34.75985,-3.20955 20.9294,-3.30988 31.80274,-2.12834 37.76866,4.10411 2.68992,2.81009 2.95523,3.70067 2.91157,9.7735 -0.0375,5.20914 -0.6313,7.80728 -2.69461,11.78912 -6.14313,11.85526 -10.40492,14.49765 -29.13901,18.06679 -14.23568,2.71213 -20.94456,5.57059 -24.56386,10.46595 -5.31719,7.19189 -0.33857,10.3789 18.49848,11.84159 40.89032,3.17512 42.89328,3.56029 49.00245,9.42327 5.3375,5.12239 6.45045,9.67262 3.96054,16.19236 -3.79922,9.94812 -13.29193,12.12913 -28.33417,6.50995 -11.49823,-4.29528 -16.14202,-4.00866 -20.40954,1.25969 -6.14751,7.58922 2.4454,13.75174 25.19189,18.06667 4.4356,0.84142 9.3685,2.20406 10.962,3.02809 5.99255,3.09887 9.54161,11.02144 7.21991,16.11702 -3.50202,7.6861 -14.64286,8.44546 -35.52199,2.42118 -15.82766,-4.56677 -22.94931,-5.10519 -26.85808,-2.03055 -3.52558,2.77322 -4.18946,7.28475 -1.85015,12.57315 2.24221,5.06888 6.01144,8.00248 20.41152,15.88632 12.63711,6.91863 18.07266,12.05012 18.07266,17.0617 0,5.36213 -3.09721,8.68067 -10.4754,11.22398 -10.03053,3.45758 -14.088,3.05687 -22.9246,-2.26396 -8.93099,-5.37766 -19.14429,-8.81055 -23.70667,-7.96827 -3.50098,0.64633 -7.29333,4.65962 -7.29333,7.71823 0,3.21658 1.91098,5.91308 10.64076,15.01469 l 8.35924,8.7153 v 5.48765 c 0,6.58926 -1.37799,9.97732 -4.66757,11.47616 -4.3311,1.97338 -11.99458,-1.22133 -28.42482,-11.84958 -11.67639,-7.55312 -18.55548,-10.23785 -25.21677,-9.84146 -9.1027,0.54168 -8.91285,3.5077 1.22701,19.16975 7.40349,11.43545 8.90453,16.08255 7.67611,23.76469 -2.29236,14.33563 -14.62583,21.33576 -26.80507,15.21381 -4.50238,-2.26314 -7.67654,-9.11355 -10.44372,-22.53947 -3.65092,-17.71366 -5.92962,-22.06175 -9.85473,-18.80421 -2.52376,2.09454 -5.59954,13.99964 -6.39362,24.74713 -0.65039,8.80266 -1.09189,10.61079 -3.11737,12.76682 -3.37861,3.59636 -9.03277,5.11289 -12.97482,3.48004 -5.18868,-2.14922 -6.32849,-5.75546 -5.52854,-17.49174 0.55114,-8.08609 0.37777,-10.92419 -0.84632,-13.85384 -2.68883,-6.43528 -6.40334,-6.10526 -10.03434,0.89151 -1.71426,3.3033 -2.03312,5.84439 -2.06167,16.42991 -0.0318,11.81359 -0.18859,12.78561 -2.76963,17.17619 -4.61996,7.85898 -13.92846,10.71597 -24.26413,7.44723 z"
   id="path1343" />
<g
   id="g1193"
   transform="translate(-3.6485444,8.1090507)"><ellipse
     style="fill:#ffffff;fill-opacity:1;stroke-width:11.9622"
     id="path859"
     cx="175.55507"
     cy="289.10498"
     rx="22.651148"
     ry="15.62171" /><ellipse
     style="fill:#ffffff;fill-opacity:1;stroke-width:11.9622"
     id="path859-3"
     cx="303.16443"
     cy="288.01477"
     rx="22.651148"
     ry="15.62171" /><ellipse
     style="fill:#000004;fill-opacity:1;stroke-width:6.88986"
     id="path859-3-6"
     cx="304.29285"
     cy="294.67108"
     rx="13.046365"
     ry="8.9976244" /><ellipse
     style="fill:#000004;fill-opacity:1;stroke-width:6.88986"
     id="path859-3-6-7"
     cx="175.2933"
     cy="295.84024"
     rx="13.046365"
     ry="8.9976244" /></g></svg>
